<?xml version="1.0" standalone="no"?>
<!DOCTYPE svg PUBLIC "-//W3C//DTD SVG 20010904//EN"
 "http://www.w3.org/TR/2001/REC-SVG-20010904/DTD/svg10.dtd">
<svg version="1.0" xmlns="http://www.w3.org/2000/svg"
 width="333.000000pt" height="324.000000pt" viewBox="0 0 333.000000 324.000000"
 preserveAspectRatio="xMidYMid meet">

<g transform="translate(0.000000,324.000000) scale(0.100000,-0.100000)"
fill="#000000" stroke="none">
<path d="M180 3221 c-69 -21 -121 -65 -156 -131 -18 -34 -19 -89 -19 -1475 l0
-1440 22 -41 c28 -53 91 -107 142 -122 55 -17 2927 -17 2982 0 51 15 114 69
142 122 l22 41 3 1410 c2 966 -1 1426 -8 1461 -13 61 -62 124 -124 157 l-41
22 -1470 2 c-808 1 -1481 -2 -1495 -6z m1725 -685 c100 -28 192 -75 235 -122
22 -24 40 -50 40 -57 0 -8 37 -27 88 -47 302 -114 691 -372 765 -508 32 -59
30 -70 -30 -122 -44 -39 -211 -120 -301 -147 l-62 -18 42 -10 43 -11 3 -512 2
-512 -90 0 -90 0 0 55 c0 38 -4 55 -13 55 -7 0 -71 4 -143 9 -71 6 -175 12
-231 15 l-103 6 0 -75 0 -75 -75 0 -75 0 0 75 0 75 -255 0 -255 0 0 -75 0 -75
-78 0 -77 0 3 75 4 75 -28 -5 c-16 -2 -101 -7 -189 -10 -88 -3 -184 -8 -212
-12 l-53 -6 0 -61 0 -61 -90 0 -90 0 0 523 0 522 30 1 c71 3 71 12 0 33 -80
24 -266 117 -313 156 -46 39 -48 72 -8 126 119 163 468 392 768 503 48 18 64
29 73 52 29 69 149 137 297 170 111 24 372 21 468 -5z"/>
<path d="M770 1193 c0 -62 4 -113 9 -113 4 0 33 5 62 10 45 9 376 50 401 50 5
0 8 26 8 58 l0 59 -142 12 c-79 7 -187 18 -240 25 l-98 12 0 -113z"/>
<path d="M2450 1295 c-52 -7 -161 -19 -242 -26 l-148 -13 0 -57 0 -57 68 -7
c109 -11 372 -45 398 -51 l24 -6 0 116 c0 64 -1 116 -2 115 -2 -1 -46 -7 -98
-14z"/>
<path d="M1400 1203 l0 -53 255 0 255 0 0 53 0 52 -255 0 -255 0 0 -52z"/>
<path d="M1155 958 c-158 -15 -357 -39 -371 -45 -11 -4 -14 -26 -14 -95 0 -88
0 -90 23 -85 12 3 120 11 240 18 l217 13 0 97 c0 54 -3 99 -7 101 -5 3 -44 1
-88 -4z"/>
<path d="M1400 868 l0 -103 255 0 255 0 0 103 0 102 -255 0 -255 0 0 -102z"/>
<path d="M2060 865 l0 -105 73 0 c74 0 311 -16 380 -25 l37 -5 0 93 0 94 -92
11 c-51 7 -140 17 -198 22 -58 5 -126 12 -152 15 l-48 6 0 -106z"/>
</g>
</svg>
