<?xml version="1.0" standalone="no"?>
<!DOCTYPE svg PUBLIC "-//W3C//DTD SVG 20010904//EN"
 "http://www.w3.org/TR/2001/REC-SVG-20010904/DTD/svg10.dtd">
<svg version="1.0" xmlns="http://www.w3.org/2000/svg"
 width="753.000000pt" height="609.000000pt" viewBox="0 0 753.000000 609.000000"
 preserveAspectRatio="xMidYMid meet">

<g transform="translate(0.000000,609.000000) scale(0.100000,-0.100000)"
fill="#000000" stroke="none">
<path d="M2320 5581 c-69 -21 -121 -65 -156 -131 -18 -34 -19 -89 -19 -1475
l0 -1440 22 -41 c28 -53 91 -107 142 -122 55 -17 2927 -17 2982 0 51 15 114
69 142 122 l22 41 3 1410 c2 966 -1 1426 -8 1461 -13 61 -62 124 -124 157
l-41 22 -1470 2 c-808 1 -1481 -2 -1495 -6z m1725 -685 c100 -28 192 -75 235
-122 22 -24 40 -50 40 -57 0 -8 37 -27 88 -47 302 -114 691 -372 765 -508 32
-59 30 -70 -30 -122 -44 -39 -211 -120 -301 -147 l-62 -18 42 -10 43 -11 3
-512 2 -512 -90 0 -90 0 0 55 c0 38 -4 55 -13 55 -7 0 -71 4 -143 9 -71 6
-175 12 -231 15 l-103 6 0 -75 0 -75 -75 0 -75 0 0 75 0 75 -255 0 -255 0 0
-75 0 -75 -78 0 -77 0 3 75 4 75 -28 -5 c-16 -2 -101 -7 -189 -10 -88 -3 -184
-8 -212 -12 l-53 -6 0 -61 0 -61 -90 0 -90 0 0 523 0 522 30 1 c71 3 71 12 0
33 -80 24 -266 117 -312 156 -47 39 -49 72 -9 126 119 163 468 392 768 503 48
18 64 29 73 52 29 69 149 137 297 170 111 24 372 21 468 -5z"/>
<path d="M2910 3553 c0 -62 4 -113 9 -113 4 0 33 5 62 10 45 9 376 50 401 50
5 0 8 26 8 58 l0 59 -142 12 c-79 7 -187 18 -240 25 l-98 12 0 -113z"/>
<path d="M4590 3655 c-52 -7 -161 -19 -242 -26 l-148 -13 0 -57 0 -57 68 -7
c109 -11 372 -45 398 -51 l24 -6 0 116 c0 64 -1 116 -2 115 -2 -1 -46 -7 -98
-14z"/>
<path d="M3540 3563 l0 -53 255 0 255 0 0 53 0 52 -255 0 -255 0 0 -52z"/>
<path d="M3295 3318 c-158 -15 -357 -39 -371 -45 -11 -4 -14 -26 -14 -95 0
-88 0 -90 23 -85 12 3 120 11 240 18 l217 13 0 97 c0 54 -3 99 -7 101 -5 3
-44 1 -88 -4z"/>
<path d="M3540 3228 l0 -103 255 0 255 0 0 103 0 102 -255 0 -255 0 0 -102z"/>
<path d="M4200 3225 l0 -105 73 0 c74 0 311 -16 380 -25 l37 -5 0 93 0 94 -92
11 c-51 7 -140 17 -198 22 -58 5 -126 12 -152 15 l-48 6 0 -106z"/>
<path d="M6375 1955 c-5 -2 -29 -9 -53 -15 -47 -12 -105 -58 -127 -101 -8 -15
-18 -52 -21 -83 l-7 -56 -48 0 -49 0 0 -70 0 -70 50 0 50 0 0 -235 0 -235 95
0 95 0 0 235 0 235 80 0 80 0 0 70 0 70 -80 0 c-89 0 -92 3 -66 65 10 23 24
37 41 41 27 7 87 1 116 -10 22 -9 49 122 28 135 -32 20 -152 35 -184 24z"/>
<path d="M4912 1939 c-111 -22 -232 -110 -285 -207 -39 -72 -60 -173 -54 -262
12 -177 109 -310 270 -369 86 -32 237 -40 338 -17 105 23 103 21 93 107 -10
82 -9 82 -84 53 -67 -26 -191 -24 -255 5 -101 45 -146 113 -153 232 -8 142 38
233 146 286 51 25 68 28 152 27 67 0 107 -5 134 -17 22 -10 43 -14 46 -10 8 9
31 135 26 140 -2 2 -28 12 -59 23 -44 16 -81 20 -164 19 -60 -1 -127 -5 -151
-10z"/>
<path d="M400 1515 l0 -425 90 0 90 0 0 265 c0 236 6 297 23 252 3 -7 74 -110
159 -228 84 -118 164 -231 177 -251 l23 -38 89 0 89 0 0 425 0 425 -91 0 -91
0 4 -276 c2 -234 1 -273 -11 -257 -7 10 -95 133 -195 273 l-182 255 -87 3 -87
3 0 -426z"/>
<path d="M6853 1865 c-29 -40 -53 -76 -53 -79 0 -3 42 -6 94 -6 l93 0 72 76
c39 41 71 77 71 80 0 2 -51 4 -112 3 l-113 0 -52 -74z"/>
<path d="M2600 1769 c-132 -194 -136 -209 -56 -209 l44 0 4 -177 c3 -164 5
-181 27 -219 44 -78 155 -111 284 -84 l57 11 0 47 c0 86 -4 91 -65 85 -48 -5
-56 -3 -79 20 -26 26 -26 28 -26 172 l0 145 85 0 85 0 0 70 0 70 -85 0 -85 0
0 90 0 90 -57 0 -58 -1 -75 -110z"/>
<path d="M1450 1707 c-82 -23 -157 -83 -194 -155 -47 -90 -39 -236 17 -330 61
-101 143 -143 293 -150 85 -4 113 -1 179 19 42 12 79 29 82 36 5 14 -15 102
-26 115 -3 4 -33 -2 -66 -14 -78 -26 -202 -22 -242 8 -35 26 -61 62 -69 97
l-6 27 222 0 223 0 -6 73 c-11 129 -54 200 -152 248 -74 36 -181 47 -255 26z
m155 -131 c35 -15 75 -67 75 -98 0 -16 -13 -18 -130 -18 -111 0 -130 2 -130
15 0 29 31 76 63 95 38 24 75 25 122 6z"/>
<path d="M2082 1701 c-131 -45 -179 -176 -101 -275 26 -33 63 -53 159 -83 41
-13 85 -30 97 -38 31 -21 30 -60 -2 -81 -33 -22 -127 -14 -209 16 -31 12 -59
20 -61 18 -7 -7 -33 -123 -29 -130 2 -4 30 -17 62 -29 47 -19 77 -23 172 -23
108 -1 118 1 175 29 49 24 64 38 83 75 41 82 23 175 -44 227 -19 14 -74 38
-123 53 -49 15 -98 33 -110 39 -25 14 -28 53 -6 71 20 17 163 7 204 -15 17 -8
32 -12 34 -7 3 4 8 33 11 64 7 52 5 58 -16 71 -60 38 -211 47 -296 18z"/>
<path d="M3252 1709 c-101 -19 -193 -93 -234 -187 -26 -61 -29 -188 -4 -247
55 -132 169 -206 316 -207 152 -1 263 64 322 187 48 103 36 246 -30 336 -75
102 -219 148 -370 118z m182 -178 c43 -41 60 -94 54 -166 -5 -59 -24 -94 -72
-129 -37 -28 -116 -28 -153 0 -53 40 -67 70 -71 147 -4 85 14 129 68 165 52
35 128 28 174 -17z"/>
<path d="M4052 1707 c-35 -11 -67 -38 -94 -77 -16 -25 -16 -25 -15 25 l2 50
-35 3 c-19 2 -59 1 -87 -3 l-53 -6 0 -305 0 -304 89 0 89 0 4 173 c3 150 6
176 23 206 33 56 67 75 145 79 l70 4 0 84 0 84 -52 -1 c-29 -1 -68 -6 -86 -12z"/>
<path d="M5575 1714 c-11 -3 -50 -14 -87 -26 -82 -25 -81 -22 -33 -155 3 -8
14 -6 40 7 55 28 167 44 210 30 38 -13 75 -52 75 -81 0 -17 -9 -19 -85 -19
-46 0 -107 -5 -135 -11 -65 -14 -140 -64 -162 -109 -22 -43 -23 -131 -4 -169
25 -47 80 -88 136 -100 98 -21 157 -10 223 41 l37 29 0 -31 0 -30 91 0 91 0
-4 218 c-3 201 -5 221 -27 270 -27 61 -75 106 -128 123 -40 12 -204 21 -238
13z m205 -389 c0 -77 -42 -115 -128 -115 -67 0 -102 41 -82 96 13 34 63 53
143 54 l67 0 0 -35z"/>
<path d="M6784 1706 c-122 -30 -199 -117 -224 -255 -13 -70 -1 -149 30 -211
28 -55 99 -118 160 -142 75 -31 266 -33 353 -4 32 10 60 22 62 26 3 5 -23 121
-29 127 -1 1 -30 -7 -65 -17 -134 -42 -253 -16 -298 65 -13 22 -23 46 -23 53
0 9 50 12 219 12 255 0 241 -7 221 109 -14 84 -58 163 -109 197 -76 50 -191
66 -297 40z m172 -135 c32 -19 70 -84 59 -101 -9 -14 -265 -13 -265 0 0 32 55
100 90 113 32 12 86 6 116 -12z"/>
<path d="M4416 729 c-34 -27 -25 -39 28 -39 62 0 86 28 41 48 -34 16 -38 15
-69 -9z"/>
<path d="M2887 726 c-50 -18 -66 -41 -67 -93 0 -34 5 -46 30 -67 17 -14 48
-30 68 -36 51 -14 65 -24 60 -45 -7 -40 -54 -43 -139 -10 -13 5 -18 -1 -21
-25 -6 -41 17 -53 104 -54 75 -1 115 19 131 68 19 58 -14 105 -94 131 -59 20
-77 38 -58 61 10 12 25 15 59 11 25 -2 53 -8 63 -12 14 -6 17 -2 17 24 0 19
-7 34 -19 40 -34 18 -95 21 -134 7z"/>
<path d="M3157 733 c-4 -3 -7 -14 -7 -23 0 -14 13 -19 62 -24 57 -6 64 -4 80
16 22 29 9 42 -26 27 -20 -10 -29 -10 -38 -1 -13 13 -60 16 -71 5z"/>
<path d="M3800 565 l0 -165 95 0 c109 0 146 13 164 58 15 36 1 78 -32 93 l-24
11 29 28 c43 44 35 96 -22 125 -20 10 -58 15 -120 15 l-90 0 0 -165z m168 93
c32 -32 1 -68 -57 -68 -29 0 -31 2 -31 40 0 40 0 40 38 40 21 0 43 -5 50 -12z
m7 -131 c13 -10 16 -21 12 -39 -7 -26 -30 -38 -79 -38 -26 0 -28 3 -28 45 l0
45 38 0 c21 0 46 -6 57 -13z"/>
<path d="M3143 638 c-29 -14 -33 -62 -5 -54 51 15 72 17 91 6 37 -19 25 -37
-31 -43 -63 -8 -98 -37 -98 -82 0 -62 78 -95 131 -56 23 17 29 19 29 6 0 -10
10 -15 30 -15 l30 0 0 94 c0 85 -2 98 -23 122 -19 22 -34 28 -78 30 -30 2 -64
-1 -76 -8z m107 -153 c0 -32 -41 -55 -65 -35 -31 25 -7 59 43 60 17 0 22 -6
22 -25z"/>
<path d="M3442 633 c-95 -46 -83 -204 18 -234 86 -26 168 22 177 102 13 110
-94 182 -195 132z m109 -59 c7 -9 14 -33 14 -54 0 -46 -19 -70 -56 -70 -38 0
-59 24 -59 70 0 22 7 45 16 54 20 21 68 20 85 0z"/>
<path d="M4124 641 c-2 -2 -4 -58 -4 -123 l0 -118 38 0 38 0 -4 40 c-8 85 16
140 63 140 17 0 24 7 28 27 3 16 3 31 0 35 -8 15 -43 8 -63 -12 -25 -25 -26
-25 -33 0 -4 14 -12 19 -32 18 -14 -1 -28 -4 -31 -7z"/>
<path d="M4363 640 c-16 -6 -23 -18 -23 -35 0 -23 3 -25 28 -18 40 11 83 8 92
-8 13 -19 2 -29 -31 -29 -44 0 -98 -26 -110 -54 -16 -34 1 -78 35 -94 34 -17
92 -8 101 16 6 16 7 16 16 0 6 -11 22 -18 40 -18 l29 0 -6 88 c-3 48 -7 97
-10 109 -8 43 -100 67 -161 43z m107 -150 c0 -23 -44 -55 -65 -46 -46 17 -18
66 37 66 21 0 28 -5 28 -20z"/>
<path d="M4650 643 c-28 -10 -60 -46 -60 -68 0 -32 20 -52 73 -74 73 -31 61
-66 -17 -49 -43 10 -60 1 -54 -28 8 -44 142 -42 178 3 40 51 17 99 -60 122
-47 14 -57 27 -32 40 13 7 31 7 53 1 47 -14 49 -13 49 15 0 14 -8 29 -19 35
-21 10 -85 12 -111 3z"/>
<path d="M370 535 l0 -25 1110 0 1110 0 0 25 0 25 -1110 0 -1110 0 0 -25z"/>
<path d="M5000 535 l0 -25 1105 0 1105 0 0 25 0 25 -1105 0 -1105 0 0 -25z"/>
</g>
</svg>
